<svg width="46" height="46" viewBox="0 0 46 46" fill="none" xmlns="http://www.w3.org/2000/svg">
<g clip-path="url(#clip0_1_2)">
<rect width="46" height="46" fill="white"/>
<rect width="46" height="46" rx="4" fill="#1F2237"/>
<path d="M21.9864 33H6.24238L14.1144 15.936L21.9864 33ZM7.63438 32.112H20.5944L14.1144 18.048L7.63438 32.112ZM31.76 16.824C30.688 16.824 29.688 17.096 28.76 17.64C27.848 18.168 27.12 18.896 26.576 19.824C26.032 20.736 25.76 21.736 25.76 22.824V25.992C25.76 27.128 25.92 28.064 26.24 28.8C26.688 29.84 27.368 30.688 28.28 31.344C29.192 32 30.216 32.368 31.352 32.448V24.648H38.672V26.232C38.672 27.256 38.52 28.168 38.216 28.968C37.72 30.296 36.888 31.36 35.72 32.16C34.552 32.96 33.232 33.36 31.76 33.36C30.368 33.36 29.096 32.984 27.944 32.232C26.808 31.464 25.976 30.448 25.448 29.184C25.064 28.288 24.872 27.224 24.872 25.992V22.824C24.872 21.576 25.176 20.424 25.784 19.368C26.408 18.312 27.248 17.48 28.304 16.872C29.36 16.248 30.512 15.936 31.76 15.936C32.8 15.936 33.752 16.112 34.616 16.464C35.48 16.8 36.216 17.296 36.824 17.952C37.32 18.496 37.72 19.104 38.024 19.776C38.344 20.448 38.504 21.128 38.504 21.816H37.64C37.624 21.224 37.472 20.64 37.184 20.064C36.912 19.488 36.56 18.968 36.128 18.504C35.056 17.384 33.6 16.824 31.76 16.824ZM37.784 25.512H32.216V32.448C33.368 32.368 34.4 32.008 35.312 31.368C36.24 30.712 36.92 29.848 37.352 28.776C37.64 28.024 37.784 27.176 37.784 26.232V25.512Z" fill="white"/>
</g>
<defs>
<clipPath id="clip0_1_2">
<rect width="46" height="46" fill="white"/>
</clipPath>
</defs>
</svg>
